<mxfile host="65bd71144e">
    <diagram id="2W8_OhKjJFHPrhqFvWXH" name="Page-1">
        <mxGraphModel dx="844" dy="704" grid="1" gridSize="10" guides="1" tooltips="1" connect="1" arrows="1" fold="1" page="1" pageScale="1" pageWidth="850" pageHeight="1100" background="#ffffff" math="0" shadow="0">
            <root>
                <mxCell id="0"/>
                <mxCell id="1" parent="0"/>
                <mxCell id="79" value="" style="shape=ext;double=1;rounded=1;whiteSpace=wrap;html=1;fillStyle=solid;strokeColor=none;fontColor=#000000;fillColor=none;" vertex="1" parent="1">
                    <mxGeometry x="45.5" y="710" width="704.5" height="310" as="geometry"/>
                </mxCell>
                <mxCell id="48" value="" style="verticalLabelPosition=bottom;html=1;verticalAlign=top;align=center;strokeColor=none;fillColor=#00BEF2;shape=mxgraph.azure.git_repository;" vertex="1" parent="1">
                    <mxGeometry x="80.5" y="720" width="50" height="50" as="geometry"/>
                </mxCell>
                <mxCell id="50" value="Main" style="ellipse;whiteSpace=wrap;html=1;aspect=fixed;strokeColor=#6666FF;" vertex="1" parent="1">
                    <mxGeometry x="630" y="800" width="80" height="80" as="geometry"/>
                </mxCell>
                <mxCell id="51" value="" style="endArrow=none;html=1;entryX=0;entryY=0.5;entryDx=0;entryDy=0;startArrow=none;strokeWidth=3;fillColor=#0050ef;strokeColor=#001DBC;" edge="1" parent="1" source="52" target="50">
                    <mxGeometry width="50" height="50" relative="1" as="geometry">
                        <mxPoint x="80" y="840" as="sourcePoint"/>
                        <mxPoint x="390" y="890" as="targetPoint"/>
                    </mxGeometry>
                </mxCell>
                <mxCell id="53" value="" style="endArrow=none;html=1;entryX=0;entryY=0.5;entryDx=0;entryDy=0;" edge="1" parent="1" target="52">
                    <mxGeometry width="50" height="50" relative="1" as="geometry">
                        <mxPoint x="80" y="840" as="sourcePoint"/>
                        <mxPoint x="630" y="840" as="targetPoint"/>
                    </mxGeometry>
                </mxCell>
                <mxCell id="52" value="" style="ellipse;whiteSpace=wrap;html=1;aspect=fixed;fillColor=#000000;" vertex="1" parent="1">
                    <mxGeometry x="65.5" y="832.5" width="15" height="15" as="geometry"/>
                </mxCell>
                <mxCell id="54" value="Feature 1" style="ellipse;whiteSpace=wrap;html=1;aspect=fixed;fillColor=#e1d5e7;fillStyle=solid;strokeColor=#9673a6;" vertex="1" parent="1">
                    <mxGeometry x="160" y="890" width="50" height="50" as="geometry"/>
                </mxCell>
                <mxCell id="55" value="Feature 2" style="ellipse;whiteSpace=wrap;html=1;aspect=fixed;fillColor=#dae8fc;fillStyle=solid;strokeColor=#6c8ebf;" vertex="1" parent="1">
                    <mxGeometry x="233.18" y="740" width="50" height="50" as="geometry"/>
                </mxCell>
                <mxCell id="56" value="Release Branch" style="ellipse;whiteSpace=wrap;html=1;aspect=fixed;fillStyle=solid;fillColor=#f8cecc;gradientColor=#ea6b66;strokeColor=#b85450;" vertex="1" parent="1">
                    <mxGeometry x="500" y="910" width="100" height="100" as="geometry"/>
                </mxCell>
                <mxCell id="57" value="New feature 1" style="ellipse;whiteSpace=wrap;html=1;aspect=fixed;fillColor=#f8cecc;fillStyle=solid;strokeColor=#b85450;" vertex="1" parent="1">
                    <mxGeometry x="457" y="740" width="60" height="60" as="geometry"/>
                </mxCell>
                <mxCell id="58" value="New feature 2" style="ellipse;whiteSpace=wrap;html=1;aspect=fixed;fillColor=#fff2cc;fillStyle=solid;gradientColor=#ffd966;strokeColor=#d6b656;" vertex="1" parent="1">
                    <mxGeometry x="640" y="930" width="60" height="60" as="geometry"/>
                </mxCell>
                <mxCell id="66" value="" style="endArrow=none;html=1;strokeWidth=2;endFill=0;curved=1;comic=0;edgeStyle=orthogonalEdgeStyle;entryX=0;entryY=0.5;entryDx=0;entryDy=0;fillColor=#e1d5e7;strokeColor=#9673a6;" edge="1" parent="1" target="54">
                    <mxGeometry width="50" height="50" relative="1" as="geometry">
                        <mxPoint x="80" y="840" as="sourcePoint"/>
                        <mxPoint x="56" y="970" as="targetPoint"/>
                    </mxGeometry>
                </mxCell>
                <mxCell id="70" value="" style="endArrow=none;html=1;strokeWidth=2;endFill=0;curved=1;comic=0;edgeStyle=orthogonalEdgeStyle;entryX=1;entryY=0.5;entryDx=0;entryDy=0;fillColor=#dae8fc;strokeColor=#6c8ebf;" edge="1" parent="1" target="55">
                    <mxGeometry width="50" height="50" relative="1" as="geometry">
                        <mxPoint x="370" y="840" as="sourcePoint"/>
                        <mxPoint x="380" y="950" as="targetPoint"/>
                    </mxGeometry>
                </mxCell>
                <mxCell id="73" value="" style="endArrow=none;html=1;strokeWidth=2;endFill=0;curved=1;comic=0;edgeStyle=orthogonalEdgeStyle;entryX=1;entryY=0.5;entryDx=0;entryDy=0;fillColor=#f8cecc;strokeColor=#b85450;" edge="1" parent="1" target="57">
                    <mxGeometry width="50" height="50" relative="1" as="geometry">
                        <mxPoint x="560" y="840" as="sourcePoint"/>
                        <mxPoint x="610" y="925" as="targetPoint"/>
                    </mxGeometry>
                </mxCell>
                <mxCell id="74" value="" style="endArrow=none;html=1;strokeWidth=2;endFill=0;curved=1;comic=0;edgeStyle=orthogonalEdgeStyle;entryX=0;entryY=0.5;entryDx=0;entryDy=0;fillColor=#fff2cc;gradientColor=#ffd966;strokeColor=#d6b656;" edge="1" parent="1" target="58">
                    <mxGeometry width="50" height="50" relative="1" as="geometry">
                        <mxPoint x="560" y="840" as="sourcePoint"/>
                        <mxPoint x="610" y="925" as="targetPoint"/>
                        <Array as="points">
                            <mxPoint x="630" y="840"/>
                            <mxPoint x="630" y="960"/>
                        </Array>
                    </mxGeometry>
                </mxCell>
                <mxCell id="75" value="" style="endArrow=none;html=1;strokeWidth=2;endFill=0;curved=1;comic=0;edgeStyle=orthogonalEdgeStyle;entryX=0;entryY=0.5;entryDx=0;entryDy=0;fillColor=#dae8fc;strokeColor=#6c8ebf;" edge="1" parent="1" target="55">
                    <mxGeometry width="50" height="50" relative="1" as="geometry">
                        <mxPoint x="160" y="840" as="sourcePoint"/>
                        <mxPoint x="220" y="1005" as="targetPoint"/>
                    </mxGeometry>
                </mxCell>
                <mxCell id="76" value="" style="endArrow=none;html=1;strokeWidth=2;endFill=0;curved=1;comic=0;edgeStyle=orthogonalEdgeStyle;entryX=1;entryY=0.5;entryDx=0;entryDy=0;fillColor=#e1d5e7;strokeColor=#9673a6;" edge="1" parent="1" target="54">
                    <mxGeometry width="50" height="50" relative="1" as="geometry">
                        <mxPoint x="280" y="840" as="sourcePoint"/>
                        <mxPoint x="300" y="925" as="targetPoint"/>
                    </mxGeometry>
                </mxCell>
                <mxCell id="77" value="" style="endArrow=none;html=1;strokeWidth=2;endFill=0;curved=1;comic=0;edgeStyle=orthogonalEdgeStyle;entryX=0;entryY=0.5;entryDx=0;entryDy=0;fillColor=#f8cecc;strokeColor=#b85450;" edge="1" parent="1" target="57">
                    <mxGeometry width="50" height="50" relative="1" as="geometry">
                        <mxPoint x="410" y="840" as="sourcePoint"/>
                        <mxPoint x="240" y="1025" as="targetPoint"/>
                    </mxGeometry>
                </mxCell>
                <mxCell id="78" value="" style="endArrow=none;html=1;strokeWidth=2;endFill=0;curved=1;comic=0;edgeStyle=orthogonalEdgeStyle;entryX=0;entryY=0.5;entryDx=0;entryDy=0;fillColor=#f8cecc;gradientColor=#ea6b66;strokeColor=#b85450;" edge="1" parent="1" target="56">
                    <mxGeometry width="50" height="50" relative="1" as="geometry">
                        <mxPoint x="390" y="840" as="sourcePoint"/>
                        <mxPoint x="370" y="975" as="targetPoint"/>
                    </mxGeometry>
                </mxCell>
            </root>
        </mxGraphModel>
    </diagram>
</mxfile>